<!DOCTYPE svg PUBLIC "-//W3C//DTD SVG 20010904//EN" "http://www.w3.org/TR/2001/REC-SVG-20010904/DTD/svg10.dtd">
<svg version="1.0" xmlns="http://www.w3.org/2000/svg" width="auto" height="100%" viewBox="0 0 12000 3810" preserveAspectRatio="xMidYMid meet">
<g id="layer101" fill="#d7a345" stroke="none">
 <path d="M4395 3796 c-252 -51 -411 -192 -470 -416 -24 -88 -24 -246 -1 -325 50 -169 176 -322 326 -393 182 -86 326 -90 546 -17 116 39 130 38 161 -15 37 -64 43 -42 43 165 0 168 -2 195 -15 195 -9 0 -18 -8 -21 -17 -74 -221 -247 -338 -440 -297 -107 22 -164 62 -226 158 -65 101 -82 176 -82 351 1 220 36 343 126 441 64 70 130 96 243 97 136 1 213 -31 322 -134 70 -66 73 -67 73 -19 0 36 -6 47 -49 88 -126 120 -345 176 -536 138z"/>
 <path d="M2220 3781 c-13 -10 -13 -12 0 -21 8 -5 23 -10 33 -10 34 0 88 -32 102 -61 13 -23 15 -106 15 -499 l0 -472 -28 -27 c-19 -19 -43 -30 -75 -35 -26 -4 -47 -11 -47 -17 0 -5 95 -9 234 -9 l233 0 48 113 c26 61 53 126 61 142 7 17 56 131 109 255 53 124 98 227 101 229 8 8 16 -8 71 -141 30 -73 84 -203 119 -288 36 -85 79 -190 96 -232 l31 -78 234 0 c222 0 293 9 182 24 -68 9 -95 37 -104 107 -3 30 -5 248 -3 486 3 420 4 432 24 460 15 20 36 32 77 42 64 15 72 27 25 36 -46 9 -555 2 -564 -7 -12 -12 -2 -17 57 -28 32 -6 63 -20 77 -33 l22 -23 -2 -469 c-3 -466 -3 -470 -22 -430 -40 87 -55 123 -86 200 -17 44 -38 94 -45 110 -8 17 -57 134 -110 260 -53 127 -105 249 -116 272 -10 24 -19 45 -19 48 0 15 -43 95 -51 95 -8 0 -79 -140 -79 -155 0 -3 -9 -24 -19 -48 -11 -23 -92 -210 -180 -416 -89 -206 -165 -379 -171 -385 -7 -7 -10 135 -10 434 0 429 1 446 20 478 20 33 71 62 109 62 18 0 38 17 30 25 -11 9 -366 15 -379 6z"/>
 <path d="M1160 3771 c0 -10 16 -16 71 -25 20 -4 45 -16 55 -27 18 -20 19 -47 22 -511 l3 -489 -28 -28 c-21 -20 -42 -30 -81 -35 -35 -4 -52 -11 -49 -19 6 -19 520 -21 641 -3 226 33 337 145 324 327 -8 112 -69 195 -182 248 -59 27 -207 51 -318 51 l-38 0 0 205 c0 266 -2 262 133 290 15 3 25 10 22 15 -8 13 -575 13 -575 1z m569 -601 c22 -11 49 -31 60 -46 30 -38 51 -117 51 -189 0 -151 -80 -245 -210 -245 l-50 0 0 250 0 250 55 0 c36 0 70 -7 94 -20z"/>
 <path d="M9027 3373 c-4 -3 -7 -20 -7 -36 0 -27 2 -29 28 -23 15 3 52 9 83 12 61 7 110 -10 129 -45 10 -19 14 -101 5 -101 -2 0 -20 9 -40 20 -43 24 -123 27 -165 5 -99 -51 -118 -245 -34 -343 43 -50 90 -67 165 -58 30 4 75 6 102 6 l47 -1 0 221 c0 201 -2 224 -20 263 -32 67 -75 87 -192 87 -52 0 -98 -3 -101 -7z m217 -237 c27 -17 27 -17 24 -139 l-3 -122 -52 -14 c-48 -13 -54 -12 -96 8 -35 17 -49 31 -61 62 -30 74 -15 173 32 210 22 17 37 20 79 17 28 -3 63 -12 77 -22z"/>
 <path d="M7609 3225 c-40 -22 -63 -64 -63 -117 0 -62 18 -93 69 -118 34 -16 145 -38 203 -40 22 0 13 -48 -14 -69 -46 -36 -121 -37 -212 -3 -10 3 -13 -4 -10 -29 4 -41 20 -47 133 -48 97 -1 142 17 167 69 15 29 18 63 18 198 l0 162 -35 0 c-31 0 -35 -3 -35 -26 l0 -25 -27 18 c-66 45 -143 56 -194 28z m171 -67 l45 -23 0 -65 0 -65 -64 3 c-115 7 -164 46 -144 117 16 56 88 71 163 33z"/>
 <path d="M8569 3225 c-71 -39 -85 -151 -26 -209 34 -34 80 -49 190 -61 52 -6 57 -9 57 -31 0 -33 -31 -61 -76 -70 -31 -6 -119 7 -162 24 -10 3 -13 -4 -10 -29 3 -28 8 -34 38 -42 19 -5 72 -7 117 -5 64 2 88 8 110 24 48 36 53 56 53 237 l0 167 -35 0 c-28 0 -35 -4 -35 -20 0 -25 2 -25 -58 5 -56 28 -122 32 -163 10z m191 -75 c28 -20 30 -26 30 -85 l0 -63 -67 6 c-80 6 -138 32 -146 65 -9 35 7 81 34 95 33 18 112 8 149 -18z"/>
 <path d="M9585 3224 c-83 -30 -125 -99 -125 -204 0 -74 22 -130 66 -172 39 -36 74 -48 143 -48 100 0 162 62 165 163 l1 52 -152 3 -153 3 0 27 c0 41 32 93 71 114 53 28 117 23 212 -17 16 -7 18 -3 15 26 -3 31 -7 35 -53 51 -62 20 -137 21 -190 2z m181 -286 c-3 -18 -20 -45 -36 -60 -53 -49 -152 -32 -185 32 -30 58 -27 60 106 60 l122 0 -7 -32z"/>
 <path d="M10812 3227 c-55 -21 -99 -63 -116 -113 -41 -120 -1 -246 94 -294 44 -22 137 -27 173 -9 62 32 97 92 97 165 l0 44 -155 0 c-149 0 -155 1 -155 20 0 11 6 35 14 53 40 93 130 111 269 52 16 -7 18 -3 15 26 -3 30 -8 35 -53 51 -57 20 -134 22 -183 5z m178 -277 c0 -94 -135 -136 -207 -64 -13 13 -33 58 -33 75 0 5 52 9 120 9 112 0 120 -1 120 -20z"/>
 <path d="M11728 3224 c-46 -24 -53 -48 -58 -209 -5 -146 -6 -150 -27 -153 -35 -5 -32 -52 2 -52 24 0 25 -3 25 -60 l0 -60 35 0 35 0 0 60 0 60 70 0 c68 0 70 1 70 25 0 24 -2 25 -70 25 l-70 0 0 140 c0 129 2 142 21 161 18 18 30 20 70 17 48 -5 49 -4 49 22 0 20 -6 29 -22 34 -40 10 -102 6 -130 -10z"/>
 <path d="M6920 2951 l0 -281 53 0 c49 0 53 2 66 33 8 17 42 88 75 157 l59 125 26 -55 c14 -30 47 -101 73 -158 l48 -102 50 0 50 0 0 280 0 280 -35 0 -35 0 -2 -242 -3 -243 -54 110 c-29 61 -64 134 -77 163 -19 41 -29 52 -47 52 -19 0 -28 -11 -47 -52 -13 -29 -46 -100 -74 -158 l-51 -105 -5 235 -5 235 -32 3 -33 3 0 -280z"/>
 <path d="M8040 3020 l0 -210 35 0 c28 0 35 4 35 20 0 25 -1 25 51 -5 53 -30 127 -33 170 -8 51 30 59 63 59 247 l0 166 -29 0 -29 0 -4 -153 c-2 -125 -6 -158 -20 -180 -30 -45 -107 -46 -175 -2 -22 15 -23 20 -23 175 l0 160 -35 0 -35 0 0 -210z"/>
 <path d="M9950 3020 l0 -210 35 0 c28 0 35 4 35 20 0 25 -1 25 51 -5 70 -39 169 -28 197 22 9 15 12 15 38 -3 78 -52 163 -60 211 -20 43 36 53 84 53 255 l0 151 -35 0 -35 0 0 -150 c0 -176 -9 -205 -65 -216 -36 -6 -82 5 -122 31 -22 15 -23 20 -23 175 l0 160 -29 0 -29 0 -4 -157 c-3 -87 -8 -165 -12 -175 -19 -43 -112 -47 -168 -6 l-28 19 0 160 0 159 -35 0 -35 0 0 -210z"/>
 <path d="M11180 3020 l0 -210 30 0 c23 0 30 4 30 20 0 25 -1 25 51 -5 51 -29 124 -33 169 -10 55 29 65 62 68 248 l4 167 -35 0 -36 0 -3 -160 c-3 -146 -5 -161 -24 -181 -32 -31 -90 -34 -144 -7 l-45 23 -3 163 -2 162 -30 0 -30 0 0 -210z"/>
 <path d="M6075 2782 c-258 -240 -592 -444 -980 -599 -232 -94 -486 -172 -720 -223 -84 -19 -102 -22 -152 -31 -29 -5 -79 -14 -110 -19 -467 -81 -1003 -109 -1483 -75 -329 23 -528 49 -815 106 -99 20 -297 66 -335 79 -14 4 -59 18 -100 30 -363 107 -734 277 -1018 469 -104 70 -195 142 -275 218 -32 30 -61 53 -63 50 -3 -2 28 -53 67 -113 96 -145 265 -314 410 -411 202 -134 594 -312 944 -427 94 -31 175 -58 182 -61 9 -3 8 -17 -4 -57 -24 -82 -20 -190 11 -272 l26 -69 -58 -61 c-135 -143 -212 -251 -277 -390 -54 -114 -68 -179 -64 -286 6 -129 58 -218 183 -314 99 -75 187 -101 320 -93 116 7 186 33 462 173 174 89 211 104 252 104 61 0 131 -33 207 -98 72 -62 145 -92 244 -99 62 -5 73 -4 66 8 -75 126 -174 230 -260 271 -132 62 -312 30 -677 -123 -215 -89 -307 -119 -366 -119 -63 0 -150 37 -204 88 -106 99 -116 259 -26 437 37 72 135 209 206 285 l69 75 34 -26 c51 -38 138 -85 194 -104 105 -36 185 -45 415 -45 232 0 418 -12 505 -31 114 -26 240 -111 281 -191 19 -36 27 -35 42 6 16 44 81 144 127 195 43 47 150 129 244 187 90 55 153 114 200 189 23 36 44 65 47 65 10 0 -7 -84 -27 -130 -36 -82 -63 -111 -194 -205 -214 -154 -292 -243 -329 -377 -23 -84 -27 -148 -12 -213 l14 -60 1 60 c1 70 21 149 51 208 40 78 101 130 477 406 122 89 186 155 224 229 l24 47 3 -52 c7 -118 -27 -162 -238 -316 -321 -232 -376 -282 -422 -383 -30 -66 -38 -255 -14 -336 20 -69 66 -138 115 -172 30 -21 40 -35 45 -67 14 -87 107 -133 222 -109 56 12 138 60 155 91 9 18 12 18 39 4 36 -19 63 -19 99 -1 36 19 52 40 60 77 5 26 15 34 64 55 32 13 75 38 95 55 20 18 73 56 117 84 89 58 145 109 124 112 -82 11 -90 14 -87 36 3 19 11 23 58 27 l55 5 3 39 c4 44 -19 99 -51 121 -28 19 -91 19 -150 -1 -62 -21 -91 -16 -95 17 -5 40 17 52 69 38 28 -8 69 -9 111 -5 76 8 90 24 65 73 -29 55 -51 66 -141 71 l-84 4 -16 -30 c-16 -31 -74 -82 -93 -82 -25 0 -170 -106 -249 -182 -64 -61 -85 -76 -79 -58 25 81 69 130 245 270 154 122 204 174 242 252 56 116 67 205 55 438 -2 41 0 45 23 48 71 8 213 48 271 78 37 18 91 55 120 82 54 50 54 50 55 112 1 72 -22 54 189 149 66 30 181 86 255 124 417 215 628 374 756 573 27 42 67 124 61 124 -1 0 -15 -13 -32 -28z m-3080 -1204 c-90 -179 -201 -275 -361 -313 -70 -17 -246 -19 -312 -4 -153 34 -230 57 -238 70 -7 11 -10 12 104 -7 68 -11 130 -14 207 -11 248 13 411 93 570 280 32 37 60 66 62 63 3 -2 -12 -37 -32 -78z m1229 -385 c-25 -81 -83 -137 -343 -336 -309 -238 -326 -260 -326 -414 1 -50 -3 -89 -7 -87 -5 3 -20 27 -33 54 -53 105 -21 230 87 340 29 29 150 126 268 215 272 205 289 223 356 380 18 41 16 -95 -2 -152z m2 -840 c-11 -11 -94 -15 -111 -5 -16 8 -12 12 26 30 24 11 53 27 64 35 19 15 20 14 23 -20 2 -19 1 -37 -2 -40z m-536 -171 c15 -22 51 -38 100 -44 l24 -3 -28 -18 c-43 -29 -93 -33 -118 -11 -49 44 -61 124 -25 170 l22 29 5 -50 c3 -28 12 -60 20 -73z"/>
 <path d="M6930 2145 l0 -35 2475 0 2475 0 0 35 0 35 -2475 0 -2475 0 0 -35z"/>
 <path d="M8645 1565 c-81 -20 -122 -41 -176 -92 -84 -78 -119 -170 -119 -308 1 -280 171 -451 428 -432 193 15 297 132 304 344 l3 88 -303 3 -303 2 7 38 c26 152 91 224 227 252 90 18 235 -14 319 -72 14 -10 29 -18 32 -18 4 0 6 32 4 72 l-3 72 -55 19 c-131 46 -262 58 -365 32z m310 -537 c-21 -130 -90 -188 -224 -188 -125 0 -223 76 -237 184 l-7 46 238 0 237 0 -7 -42z"/>
 <path d="M9383 1559 c-58 -28 -119 -98 -133 -151 -15 -54 -8 -163 13 -203 25 -49 68 -86 132 -115 72 -33 145 -47 288 -56 l107 -6 0 -30 c0 -41 -23 -91 -53 -115 -35 -27 -135 -47 -200 -40 -50 6 -173 36 -209 52 -16 6 -18 0 -18 -58 0 -36 3 -68 8 -70 17 -11 197 -37 254 -37 164 0 272 47 320 139 l28 53 0 319 0 319 -65 0 -65 0 0 -40 c0 -45 -7 -48 -41 -21 -100 77 -271 105 -366 60z m263 -115 c25 -8 68 -29 95 -46 l49 -30 0 -119 c0 -102 -2 -119 -16 -119 -8 0 -59 5 -112 10 -222 24 -282 62 -282 178 0 68 22 105 74 128 42 18 135 17 192 -2z"/>
 <path d="M10752 1561 c-75 -26 -106 -58 -135 -145 -5 -17 -13 -148 -16 -291 l-6 -260 -43 -3 -43 -3 3 -52 3 -52 43 -3 42 -3 0 -115 0 -114 70 0 70 0 0 115 0 115 140 0 140 0 0 55 0 55 -140 0 -140 0 0 245 c0 260 4 290 48 329 12 10 40 22 62 26 37 7 63 4 148 -15 21 -5 22 -2 22 53 l0 58 -70 12 c-94 16 -135 15 -198 -7z"/>
 <path d="M7202 1483 c-12 -43 -30 -113 -42 -155 -11 -43 -29 -111 -39 -150 -11 -40 -31 -116 -45 -168 -65 -249 -78 -297 -102 -387 -44 -161 -48 -144 36 -141 l73 3 111 442 c61 244 113 443 116 443 3 0 55 -200 115 -445 l110 -445 72 0 72 0 9 32 c5 18 55 221 112 451 57 229 105 415 108 412 3 -3 56 -204 117 -448 l111 -442 67 -3 68 -3 -7 28 c-7 31 -145 562 -199 768 -19 72 -41 157 -50 190 -26 103 -17 95 -106 95 -43 0 -79 -2 -79 -5 0 -3 -43 -176 -96 -383 -53 -207 -104 -405 -112 -440 -9 -34 -19 -59 -22 -55 -4 5 -56 205 -115 446 l-108 437 -78 0 -77 0 -20 -77z"/>
 <path d="M10190 995 l0 -565 70 0 70 0 -2 563 -3 562 -67 3 -68 3 0 -566z"/>
 <path d="M11190 995 l0 -565 65 0 65 0 0 205 c0 113 3 205 6 205 3 0 20 -11 37 -24 142 -106 328 -113 426 -15 71 71 82 138 79 480 l-3 274 -67 3 -67 3 -3 -298 c-3 -329 -5 -338 -67 -380 -27 -18 -48 -23 -103 -23 -71 0 -122 17 -200 68 l-38 25 0 303 0 304 -65 0 -65 0 0 -565z"/>
 </g>

</svg>