<?xml version="1.0" encoding="utf-8"?>
<!-- Generator: Adobe Illustrator 24.1.0, SVG Export Plug-In . SVG Version: 6.00 Build 0)  -->
<svg version="1.1" id="Layer_1" xmlns="http://www.w3.org/2000/svg" xmlns:xlink="http://www.w3.org/1999/xlink" x="0px" y="0px"
	 viewBox="0 0 352.8 62" style="enable-background:new 0 0 352.8 62;" xml:space="preserve">
<style type="text/css">
	.st0{fill:none;}
</style>
<g>
	<rect x="98.7" y="0.1" width="7.8" height="10.6"/>
	<rect x="2.8" y="37.7" width="7.8" height="5.6"/>
	<rect x="16.5" y="25.6" width="7.8" height="17.7"/>
	<rect x="30.2" y="17.7" width="7.8" height="8"/>
	<rect x="43.9" y="15.2" width="7.8" height="28"/>
	<rect x="57.6" y="7.7" width="7.8" height="35.6"/>
	<rect x="71.3" y="21.5" width="7.8" height="21.5"/>
	<rect x="85" width="7.8" height="43"/>
	<path d="M138.5,42.6h3V14h-3V42.6z M138.2,4.1h3.8V0.4h-3.8V4.1z"/>
	<path d="M155.1,16.3v26.4h-3V16.3h-3.9V14h3.9V7.8c0-2.2,0.6-4,1.8-5.4s2.9-2.1,5.2-2.1h2.6V3h-2.1c-1.5,0-2.6,0.4-3.3,1.2
		c-0.7,0.8-1.1,2-1.1,3.5V14h6.5v2.3H155.1z"/>
	<path d="M167.1,29c0,3.7,0.8,6.5,2.4,8.4c1.6,1.9,3.9,2.9,7,2.9c1.7,0,3.2-0.3,4.3-0.8c1.2-0.5,2.4-1.4,3.6-2.6l2.3,1.8
		c-0.7,0.7-1.4,1.3-2.2,1.9c-0.7,0.5-1.5,1-2.3,1.4s-1.7,0.6-2.7,0.8s-2,0.3-3.2,0.3c-4,0-7-1.2-9.1-3.7s-3.1-6.1-3.1-10.9
		c0-4.6,1-8.2,3-10.8s4.9-3.9,8.5-3.9s6.5,1.2,8.5,3.7s3,5.9,3,10.3V29H167.1z M183.9,24.8c0-0.5-0.1-0.9-0.2-1.3
		c-0.1-0.4-0.2-0.8-0.3-1.1c-0.1-0.4-0.3-0.8-0.4-1.2c-0.6-1.5-1.6-2.7-3-3.5c-1.3-0.9-2.8-1.3-4.5-1.3s-3.2,0.4-4.5,1.3
		c-1.3,0.8-2.3,2-3,3.5c-0.2,0.4-0.3,0.8-0.4,1.2c-0.1,0.4-0.2,0.8-0.3,1.1c-0.1,0.4-0.1,0.8-0.2,1.3c0,0.5-0.1,1.1-0.1,1.8h17
		C184,25.9,184,25.3,183.9,24.8"/>
	<rect x="193.2" y="0.4" width="6.5" height="42.3"/>
	<path d="M225.4,42.6V24.3c0-2.3-0.6-4-1.8-5.1s-2.6-1.6-4.3-1.6s-3.2,0.5-4.4,1.6c-1.2,1.1-1.9,2.8-1.9,5.1v18.3h-6V12.5h6v3
		c1-1.1,2.3-2,3.7-2.6s2.9-0.8,4.4-0.8c1.6,0,3,0.2,4.2,0.7c1.3,0.5,2.3,1.1,3.3,2c1.2,1.1,2,2.4,2.4,3.8s0.7,3,0.7,4.7v19.2
		L225.4,42.6L225.4,42.6z"/>
	<polygon points="250.6,42.6 245.6,42.6 234.5,12.5 241,12.5 248.1,33.7 255.2,12.5 261.7,12.5 	"/>
	<path d="M269.3,29.3c0,2.6,0.7,4.7,2,6.2s3.2,2.3,5.7,2.3c1.7,0,3.1-0.2,4.2-0.7s2.1-1.3,3.2-2.3l3.9,3.6c-0.8,0.8-1.6,1.5-2.4,2
		c-0.8,0.6-1.6,1.1-2.5,1.5s-1.9,0.7-2.9,0.9c-1.1,0.2-2.2,0.3-3.6,0.3c-1.9,0-3.7-0.3-5.3-0.8c-1.7-0.5-3.1-1.4-4.3-2.6
		c-1.2-1.2-2.2-2.8-2.9-4.8c-0.7-2-1.1-4.4-1.1-7.2c0-4.9,1.2-8.7,3.5-11.4s5.5-4,9.4-4c2,0,3.8,0.4,5.4,1.1s2.9,1.7,4,3
		s1.9,2.8,2.5,4.6s0.9,3.7,0.9,5.9v2.7h-19.7L269.3,29.3L269.3,29.3z M283,22.9c-0.1-0.6-0.3-1.2-0.6-1.9c-0.5-1.1-1.2-2.1-2.3-2.8
		c-1-0.7-2.3-1-3.7-1c-1.4,0-2.7,0.3-3.7,1c-1.1,0.7-1.8,1.6-2.3,2.8c-0.3,0.7-0.5,1.3-0.6,1.9c-0.1,0.6-0.1,1.3-0.2,2.2h13.6
		C283.2,24.2,283.1,23.5,283,22.9"/>
	<path d="M316.5,37.6c-0.6,1.2-1.5,2.2-2.6,3s-2.4,1.4-4,1.8c-1.6,0.4-3.2,0.6-5,0.6c-2.5,0-4.8-0.3-6.9-0.9
		c-2.1-0.6-4.1-1.7-5.9-3.5l4-4c1.2,1.3,2.6,2.1,4.2,2.5c1.5,0.4,3.1,0.6,4.6,0.6c1.9,0,3.4-0.3,4.7-1c1.3-0.7,1.9-1.7,1.9-3.1
		c0-1-0.3-1.8-0.9-2.5c-0.6-0.6-1.7-1-3.1-1.1l-4.8-0.4c-2.9-0.2-5.1-1-6.6-2.3c-1.6-1.3-2.3-3.3-2.3-6c0-1.5,0.3-2.8,0.9-3.9
		s1.4-2.1,2.5-2.9c1-0.8,2.2-1.4,3.6-1.8s2.9-0.6,4.4-0.6c2.3,0,4.4,0.3,6.3,0.8s3.6,1.4,5,2.6l-3.8,3.9c-1-0.8-2.1-1.4-3.4-1.7
		c-1.3-0.3-2.7-0.5-4.1-0.5c-1.8,0-3.2,0.4-4.1,1.1c-0.9,0.7-1.4,1.6-1.4,2.8c0,0.9,0.3,1.7,0.9,2.3s1.7,1,3.3,1.2l4.8,0.4
		c2.9,0.2,5.1,1,6.7,2.4s2.4,3.4,2.4,6.1C317.5,35,317.1,36.4,316.5,37.6"/>
	<path d="M332.7,42.6c-1.4,0-2.7-0.2-3.7-0.7s-1.9-1.1-2.6-1.9c-0.7-0.8-1.2-1.7-1.5-2.7s-0.5-2-0.5-3.1V17.7h-3.5v-4.6h3.5V4h6.1
		v9.1h5.9v4.6h-5.9V34c0,1.1,0.3,2,0.8,2.6s1.4,0.9,2.5,0.9h2.5v5.2h-3.6L332.7,42.6L332.7,42.6z"/>
	<path d="M346.5,8.4c-0.2,0.4-0.4,0.7-0.7,1c-0.3,0.3-0.6,0.5-1,0.7s-0.8,0.3-1.3,0.3c-0.4,0-0.9-0.1-1.3-0.3
		c-0.4-0.2-0.7-0.4-1-0.7c-0.3-0.3-0.5-0.6-0.7-1s-0.3-0.8-0.3-1.2c0-0.4,0.1-0.9,0.3-1.2c0.2-0.4,0.4-0.7,0.7-1
		c0.3-0.3,0.6-0.5,1-0.7S343,4,343.5,4c0.4,0,0.9,0.1,1.3,0.3c0.4,0.2,0.7,0.4,1,0.7c0.3,0.3,0.5,0.6,0.7,1s0.3,0.8,0.3,1.2
		S346.7,8,346.5,8.4 M346.2,6c-0.1-0.3-0.3-0.6-0.6-0.9c-0.3-0.3-0.5-0.5-0.9-0.6c-0.3-0.1-0.7-0.2-1.1-0.2s-0.7,0.1-1.1,0.2
		c-0.3,0.1-0.6,0.4-0.9,0.6c-0.3,0.3-0.5,0.6-0.6,0.9s-0.2,0.7-0.2,1.1s0.1,0.7,0.2,1.1c0.1,0.3,0.3,0.6,0.6,0.9
		c0.3,0.3,0.5,0.5,0.9,0.6c0.3,0.1,0.7,0.2,1.1,0.2s0.7-0.1,1.1-0.2c0.3-0.2,0.6-0.4,0.9-0.6c0.3-0.3,0.5-0.6,0.6-0.9
		s0.2-0.7,0.2-1.1C346.4,6.8,346.3,6.4,346.2,6 M344.4,8.9l-0.9-1.5H343v1.5h-0.4V5.4h1.1c0.1,0,0.3,0,0.4,0.1s0.3,0.1,0.4,0.2
		s0.2,0.2,0.2,0.3c0.1,0.1,0.1,0.3,0.1,0.4c0,0.3-0.1,0.5-0.2,0.6c-0.2,0.2-0.3,0.3-0.6,0.3l0.9,1.5h-0.5V8.9z M344.2,5.9
		c-0.1-0.1-0.3-0.2-0.5-0.2H343V7h0.7c0.2,0,0.4-0.1,0.5-0.2s0.2-0.3,0.2-0.5C344.4,6.2,344.3,6,344.2,5.9"/>
	<path d="M129.3,42.6c-2.4,0-4.1-0.7-5.2-2s-1.7-3.1-1.7-5.4V0.4h3v34.8c0,1.6,0.3,2.8,0.9,3.6s1.8,1.2,3.5,1.2h2.1v2.7L129.3,42.6
		L129.3,42.6z"/>
	<path d="M128.9,62l-0.7-1.9h-3.6l-0.7,1.9h-0.6l2.8-7.7h0.5l2.8,7.7H128.9z M126.4,55.1l-1.6,4.5h3.2L126.4,55.1z"/>
	<path d="M141.8,61.5c-0.5,0.4-1.1,0.6-1.9,0.6c-0.3,0-0.6,0-0.8-0.1c-0.2,0-0.5-0.1-0.7-0.2s-0.4-0.2-0.6-0.3
		c-0.2-0.1-0.4-0.3-0.5-0.5l0.4-0.4c0.2,0.2,0.3,0.3,0.5,0.4s0.3,0.2,0.5,0.3c0.2,0.1,0.4,0.1,0.5,0.2c0.2,0,0.4,0,0.6,0
		c0.6,0,1.1-0.1,1.5-0.4s0.5-0.7,0.5-1.2s-0.1-0.8-0.4-1.1c-0.1-0.1-0.1-0.1-0.2-0.2c-0.1,0-0.1-0.1-0.2-0.1c-0.1,0-0.2-0.1-0.3-0.1
		s-0.2,0-0.4-0.1l-0.9-0.1c-0.6-0.1-1-0.3-1.4-0.6c-0.4-0.3-0.6-0.8-0.6-1.4s0.2-1.2,0.6-1.5c0.4-0.4,1-0.6,1.8-0.6
		c0.5,0,0.9,0.1,1.2,0.2s0.7,0.3,1,0.6l-0.4,0.4c-0.1-0.1-0.2-0.2-0.4-0.3c-0.1-0.1-0.3-0.2-0.4-0.2c-0.1-0.1-0.3-0.1-0.5-0.1
		s-0.4-0.1-0.6-0.1c-0.6,0-1,0.1-1.3,0.4s-0.5,0.7-0.5,1.2c0,0.4,0.1,0.8,0.4,1c0.1,0.1,0.3,0.2,0.5,0.3c0.2,0.1,0.4,0.1,0.6,0.2
		l0.8,0.1c0.2,0,0.3,0.1,0.5,0.1c0.1,0,0.3,0.1,0.4,0.1c0.1,0,0.2,0.1,0.3,0.1c0.1,0.1,0.2,0.1,0.3,0.2c0.2,0.2,0.4,0.4,0.5,0.6
		c0.1,0.3,0.2,0.5,0.2,0.8C142.5,60.6,142.3,61.1,141.8,61.5"/>
	<path d="M155,61.5c-0.5,0.4-1.1,0.6-1.9,0.6c-0.3,0-0.6,0-0.8-0.1c-0.2,0-0.5-0.1-0.7-0.2s-0.4-0.2-0.6-0.3
		c-0.2-0.1-0.4-0.3-0.5-0.5l0.4-0.4c0.2,0.2,0.3,0.3,0.5,0.4s0.3,0.2,0.5,0.3c0.2,0.1,0.4,0.1,0.5,0.2c0.2,0,0.4,0,0.6,0
		c0.6,0,1.1-0.1,1.5-0.4s0.5-0.7,0.5-1.2s-0.1-0.8-0.4-1.1c-0.1-0.1-0.1-0.1-0.2-0.2c-0.1,0-0.1-0.1-0.2-0.1c-0.1,0-0.2-0.1-0.3-0.1
		s-0.2,0-0.4-0.1l-0.9-0.1c-0.6-0.1-1-0.3-1.4-0.6c-0.4-0.3-0.6-0.8-0.6-1.4s0.2-1.2,0.6-1.5c0.4-0.4,1-0.6,1.8-0.6
		c0.5,0,0.9,0.1,1.2,0.2s0.7,0.3,1,0.6l-0.4,0.4c-0.1-0.1-0.2-0.2-0.4-0.3c-0.1-0.1-0.3-0.2-0.4-0.2c-0.1-0.1-0.3-0.1-0.5-0.1
		s-0.4-0.1-0.6-0.1c-0.6,0-1,0.1-1.3,0.4s-0.5,0.7-0.5,1.2c0,0.4,0.1,0.8,0.4,1c0.1,0.1,0.3,0.2,0.5,0.3c0.2,0.1,0.4,0.1,0.6,0.2
		l0.8,0.1c0.2,0,0.3,0.1,0.5,0.1c0.1,0,0.3,0.1,0.4,0.1c0.1,0,0.2,0.1,0.3,0.1c0.1,0.1,0.2,0.1,0.3,0.2c0.2,0.2,0.4,0.4,0.5,0.6
		c0.1,0.3,0.2,0.5,0.2,0.8C155.7,60.6,155.5,61.1,155,61.5"/>
	<polygon points="164.6,62 164.6,54.3 169.3,54.3 169.3,54.8 165.2,54.8 165.2,57.8 168.7,57.8 168.7,58.3 165.2,58.3 165.2,61.4 
		169.3,61.4 169.3,62 	"/>
	<polygon points="180.2,54.8 180.2,62 179.6,62 179.6,54.8 177.3,54.8 177.3,54.3 182.5,54.3 182.5,54.8 	"/>
	<polygon points="206.8,62 206.8,55.6 204.5,60.9 203.9,60.9 201.5,55.6 201.5,62 200.9,62 200.9,54.3 201.5,54.3 204.2,60.2 
		206.8,54.3 207.4,54.3 207.4,62 	"/>
	<path d="M221.4,62l-0.7-1.9h-3.6l-0.7,1.9h-0.6l2.8-7.7h0.5l2.8,7.7H221.4z M219,55.1l-1.6,4.5h3.2L219,55.1z"/>
	<polygon points="235.5,62 231.1,55.3 231.1,62 230.5,62 230.5,54.3 231.1,54.3 235.5,60.9 235.5,54.3 236.1,54.3 236.1,62 	"/>
	<path d="M250.1,62l-0.7-1.9h-3.6l-0.7,1.9h-0.6l2.8-7.7h0.5l2.8,7.7H250.1z M247.7,55.1l-1.6,4.5h3.2L247.7,55.1z"/>
	<path d="M263.9,60.3c-0.1,0.3-0.3,0.6-0.5,0.8c-0.3,0.3-0.6,0.5-0.9,0.7c-0.4,0.2-0.7,0.2-1.1,0.2s-0.7-0.1-1.1-0.2
		c-0.3-0.1-0.6-0.3-0.9-0.6c-0.2-0.2-0.3-0.3-0.4-0.5s-0.2-0.4-0.2-0.6s-0.1-0.5-0.1-0.8s0-0.7,0-1.1s0-0.8,0-1.1
		c0-0.3,0-0.6,0.1-0.8c0-0.2,0.1-0.4,0.2-0.6s0.2-0.4,0.4-0.5c0.3-0.3,0.5-0.4,0.9-0.6c0.3-0.1,0.7-0.2,1.1-0.2
		c0.3,0,0.7,0.1,0.9,0.2c0.3,0.1,0.6,0.3,0.8,0.5c0.2,0.2,0.4,0.4,0.6,0.7c0.2,0.3,0.3,0.6,0.3,0.9h-0.6c-0.1-0.5-0.4-1-0.7-1.3
		c-0.4-0.3-0.8-0.5-1.3-0.5c-0.3,0-0.5,0.1-0.8,0.2s-0.5,0.2-0.7,0.4c-0.1,0.1-0.2,0.3-0.3,0.4c-0.1,0.2-0.1,0.3-0.2,0.6
		c0,0.2-0.1,0.5-0.1,0.8s0,0.6,0,1.1c0,0.4,0,0.8,0,1.1c0,0.3,0,0.5,0.1,0.8c0,0.2,0.1,0.4,0.2,0.6s0.2,0.3,0.3,0.4
		c0.2,0.2,0.4,0.3,0.7,0.4c0.3,0.1,0.5,0.2,0.8,0.2s0.6-0.1,0.9-0.2s0.5-0.3,0.7-0.6c0.2-0.2,0.3-0.4,0.4-0.7
		c0.1-0.2,0.1-0.5,0.1-0.9v-0.7h-2.1V58h2.7v1.3C264.1,59.7,264,60,263.9,60.3"/>
	<polygon points="273.2,62 273.2,54.3 277.9,54.3 277.9,54.8 273.8,54.8 273.8,57.8 277.3,57.8 277.3,58.3 273.8,58.3 273.8,61.4 
		277.9,61.4 277.9,62 	"/>
	<polygon points="292.7,62 292.7,55.6 290.3,60.9 289.8,60.9 287.4,55.6 287.4,62 286.8,62 286.8,54.3 287.4,54.3 290.1,60.2 
		292.7,54.3 293.3,54.3 293.3,62 	"/>
	<polygon points="302.7,62 302.7,54.3 307.4,54.3 307.4,54.8 303.3,54.8 303.3,57.8 306.8,57.8 306.8,58.3 303.3,58.3 303.3,61.4 
		307.4,61.4 307.4,62 	"/>
	<polygon points="321.3,62 316.9,55.3 316.9,62 316.3,62 316.3,54.3 316.9,54.3 321.3,60.9 321.3,54.3 321.9,54.3 321.9,62 	"/>
	<polygon points="333.4,54.8 333.4,62 332.8,62 332.8,54.8 330.5,54.8 330.5,54.3 335.7,54.3 335.7,54.8 	"/>
	<rect x="2.8" class="st0" width="344" height="62"/>
</g>
</svg>
